Coordinates
version=1
nRows=10
nColumns=40
inDegrees=yes

Units are S.I. units (second, meters, Newtons, ...)
Angles are in degrees.

endheader
time	pelvis_tilt	pelvis_list	pelvis_rotation	pelvis_tx	pelvis_ty	pelvis_tz	hip_flexion_r	hip_adduction_r	hip_rotation_r	knee_angle_r	knee_angle_r_beta	ankle_angle_r	subtalar_angle_r	mtp_angle_r	hip_flexion_l	hip_adduction_l	hip_rotation_l	knee_angle_l	knee_angle_l_beta	ankle_angle_l	subtalar_angle_l	mtp_angle_l	lumbar_extension	lumbar_bending	lumbar_rotation	arm_flex_r	arm_add_r	arm_rot_r	elbow_flex_r	pro_sup_r	wrist_flex_r	wrist_dev_r	arm_flex_l	arm_add_l	arm_rot_l	elbow_flex_l	pro_sup_l	wrist_flex_l	wrist_dev_l
     53.94000000	     -7.06297139	     -4.36219077	      0.00867449	      1.04988656	      0.92874663	      0.42325801	     34.28000296	     -7.53851824	     -6.74861063	     68.46594711	     68.46594711	      3.96662710	    -18.29820614	      6.90030041	     18.96552000	     -4.89820532	     -5.70142427	     22.08346642	     22.08346642	     12.99179654	     -6.44663674	     -1.40793440	    -11.58670548	      2.89197443	      1.40996010	     15.27810770	    -13.21208100	      7.51976967	     56.53853963	     45.50997215	      0.00000000	      0.00000000	      1.30366832	    -11.30626020	     -1.01355273	     46.76529617	     45.85939946	      0.00000000	      0.00000000
     53.95228571	     -6.91978667	     -4.41532781	     -0.25544604	      1.04906545	      0.92944293	      0.42269755	     35.27032626	     -7.36115236	     -6.65834694	     66.89222728	     66.89222728	      3.77141295	    -17.81673079	      6.50562772	     17.85107268	     -4.95727506	     -6.03520953	     21.50129411	     21.50129411	     13.39610136	     -6.14303975	     -1.61271329	    -11.74337283	      3.07360097	      1.81147164	     13.09849702	    -14.20568058	      7.55129806	     53.59875569	     45.59898872	      0.00000000	      0.00000000	      2.92121860	    -11.59836785	     -1.09352084	     47.95020153	     45.90581193	      0.00000000	      0.00000000
     53.96457143	     -6.79507951	     -4.50034064	     -0.48268413	      1.04828112	      0.93005834	      0.42215530	     36.03650493	     -7.21213042	     -6.73334951	     64.93595237	     64.93595237	      2.91602860	    -17.41996881	      4.19725551	     16.75571038	     -5.09464762	     -6.58509481	     20.89137938	     20.89137938	     13.64852734	     -5.45196458	     -2.43445716	    -11.78793132	      3.28060840	      1.48224064	     12.50118400	    -13.97061036	      6.60310904	     46.99033727	     45.86225445	      0.00000000	      0.00000000	      3.93190905	    -12.41403442	     -0.22850943	     49.50260108	     45.89862378	      0.00000000	      0.00000000
     53.97685714	     -6.59263530	     -4.49860129	     -0.74351519	      1.04762321	      0.93066130	      0.42166435	     36.65747821	     -7.06655429	     -6.67876349	     62.89521902	     62.89521902	      2.66393592	    -16.78846518	      3.76966266	     15.51680977	     -5.06466275	     -6.96057479	     20.18131528	     20.18131528	     13.99609206	     -5.16445205	     -2.61258512	    -12.01311605	      3.38220680	      1.88641873	     10.45310577	    -14.81187851	      6.44635481	     44.18528188	     45.95487307	      0.00000000	      0.00000000	      5.44434745	    -12.72526767	     -0.40417293	     50.99284772	     45.96006615	      0.00000000	      0.00000000
     53.98914286	     -6.47763125	     -4.51646112	     -0.96455351	      1.04701241	      0.93109566	      0.42122874	     37.14328240	     -6.92921254	     -6.72463181	     60.43597440	     60.43597440	      1.88094950	    -16.20470750	      1.95183862	     14.39367107	     -5.08662210	     -7.44842013	     19.47775663	     19.47775663	     14.11914068	     -4.60850743	     -3.44675116	    -12.10856859	      3.53379188	      1.56728078	     10.06661292	    -14.55473250	      5.08188387	     37.87362929	     46.23643324	      0.00000000	      0.00000000	      6.31394334	    -13.53986995	      0.22980881	     52.86281650	     45.98842416	      0.00000000	      0.00000000
     54.00142857	     -6.33980323	     -4.46407551	     -1.19790748	      1.04654959	      0.93145086	      0.42090358	     37.47121073	     -6.80465699	     -6.70710632	     57.74325592	     57.74325592	      1.37312137	    -15.48899138	      0.80849042	     13.15937867	     -4.97361975	     -7.79020740	     18.60544643	     18.60544643	     14.23941649	     -4.31163536	     -3.97654197	    -12.24330183	      3.60429620	      1.54569532	      8.89979065	    -14.71214499	      3.55310099	     33.90708505	     46.43048685	      0.00000000	      0.00000000	      7.33041267	    -14.02524884	      0.04511857	     54.80838116	     46.10834256	      0.00000000	      0.00000000
     54.01371429	     -6.39248484	     -4.35405250	     -1.37607540	      1.04597884	      0.93124567	      0.42066199	     37.96010211	     -6.72788679	     -6.68838882	     54.93798741	     54.93798741	      1.25073725	    -14.61515419	      1.08310886	     12.39158122	     -4.81615794	     -8.01394405	     18.20033616	     18.20033616	     14.60114345	     -4.15419474	     -4.08662193	    -12.14687395	      3.64077237	      1.04361918	      7.11289220	    -15.22877561	      3.49591742	     32.94187646	     46.45644983	      0.00000000	      0.00000000	      8.42289607	    -14.71241678	     -0.29395772	     55.52280709	     46.15700014	      0.00000000	      0.00000000
     54.02600000	     -6.14346372	     -4.18846024	     -1.64185837	      1.04592970	      0.93159254	      0.42054614	     37.86565224	     -6.69457940	     -6.71552957	     51.71959478	     51.71959478	      1.14693647	    -13.37717595	      0.79393999	     10.80633707	     -4.57821026	     -8.64574027	     16.94333568	     16.94333568	     14.75477588	     -3.33601909	     -4.41425068	    -12.44021179	      3.55245923	      1.92645347	      5.02387280	    -15.92686112	      3.03018038	     30.30461938	     46.56844643	      0.00000000	      0.00000000	      9.86006145	    -14.63119359	     -0.47353262	     57.95170531	     46.23367827	      0.00000000	      0.00000000
     54.03828571	     -6.03625040	     -4.02439507	     -1.84279884	      1.04578815	      0.93146351	      0.42061482	     37.79284500	     -6.64309583	     -6.83914632	     48.26085625	     48.26085625	      1.02436686	    -12.20392921	      0.76408175	      9.59978929	     -4.35459880	     -9.07259999	     16.07678199	     16.07678199	     14.96906670	     -2.79174726	     -4.72200309	    -12.52804848	      3.49238442	      1.96247980	      3.27048795	    -16.38493955	      2.63905768	     28.72484899	     46.64050667	      0.00000000	      0.00000000	     10.90259062	    -14.98892790	     -0.72923147	     59.73297496	     46.29742640	      0.00000000	      0.00000000
     54.05057143	     -5.99269391	     -3.80112647	     -2.01728990	      1.04577311	      0.93106034	      0.42079150	     37.62590325	     -6.61950466	     -7.00129973	     44.55429836	     44.55429836	      0.88590411	    -10.92205301	      0.71303425	      8.45119057	     -4.06843592	     -9.53807348	     15.18488748	     15.18488748	     15.13845632	     -2.14199540	     -5.12831494	    -12.51374938	      3.33660570	      1.93464853	      1.44338858	    -16.74423244	      2.16184277	     27.36542419	     46.71059668	      0.00000000	      0.00000000	     11.83101408	    -15.40253846	     -1.06098873	     61.84046762	     46.37175315	      0.00000000	      0.00000000
